<svg width="79" height="78" viewBox="0 0 79 78" fill="none" xmlns="http://www.w3.org/2000/svg">
<rect width="79" height="77.537" rx="27" fill="#2B65EC"/>
<path d="M51.6249 21.7905C51.7046 21.5693 51.8101 21.3235 51.6868 20.9888C51.773 20.7495 51.721 20.4539 51.6778 20.1709C51.5615 19.3971 51.34 18.6479 51.1472 18.3166C51.1465 18.3152 51.1599 18.3186 51.1592 18.3172C50.9741 18.0017 49.2289 18.5224 49.2289 18.5224C49.2289 18.5224 49.2296 18.6662 49.2241 18.888C49.2056 19.5791 49.1535 21.0375 49.044 21.3417C48.9031 21.7332 45.9231 25.1757 45.3432 26.1399C45.3282 26.1646 45.3151 26.1876 45.3038 26.2088C44.9179 26.9149 44.7054 27.4849 44.6153 27.9382C44.6126 27.9457 44.6125 27.9528 44.6109 27.9606C44.4732 28.675 44.6414 29.0947 44.915 29.2996C45.1968 29.5122 45.589 29.4963 45.8699 29.3389C45.9033 29.3205 45.9093 29.2903 45.9446 29.2667C47.6109 28.1934 51.2798 22.7525 51.6264 21.7898L51.6249 21.7905Z" fill="white"/>
<path d="M51.7337 20.1905C51.6174 19.4167 51.3677 18.6577 51.1749 18.3265L49.2269 18.8892C49.2084 19.5804 49.1552 21.0383 49.0457 21.3426C48.9048 21.734 45.9238 25.1761 45.3438 26.1404C45.6379 25.8009 45.4893 26.8907 45.6335 26.8761C45.8597 26.8541 45.5661 25.8717 45.6923 25.8089C45.802 25.7548 45.9723 26.4768 46.0528 26.3683C46.1643 26.2179 45.8611 25.7024 45.958 25.4907C46.0318 25.3297 49.2612 21.8408 49.3672 21.7938C49.5097 21.7296 49.8686 22.1209 49.9946 21.9504C50.071 21.8465 49.3734 21.7122 49.4476 21.5705C49.5218 21.4287 50.15 21.4001 50.1564 21.2707C50.1628 21.1413 49.4504 21.3968 49.4084 21.3068C49.3664 21.2169 49.5736 20.4045 49.6308 20.2964C49.6895 20.1875 51.2737 19.8025 51.7326 20.1901L51.7337 20.1905Z" fill="white"/>
<path d="M51.7339 20.1906C51.5338 19.8628 50.7222 19.8589 50.8915 20.0253C51.3562 20.0716 51.5975 21.4905 51.3989 21.8727C49.8157 24.9262 46.0949 29.7055 44.9133 29.3005C45.1951 29.5131 45.5477 29.5122 45.8364 29.3706C47.5174 28.5441 51.3687 22.8099 51.7221 21.8281C51.9749 21.1261 51.73 20.4824 51.7324 20.1913L51.7339 20.1906Z" fill="white"/>
<path d="M51.6051 18.9155C51.4655 18.5787 51.2074 18.1207 51.1661 18.0932C51.1051 18.0529 49.2499 18.3846 49.1701 18.4574C49.0743 18.5439 48.7931 20.1513 48.8982 20.2081C48.9237 20.2217 48.9775 20.2213 49.0533 20.2105C49.6517 20.126 51.6231 19.38 51.6883 19.2566C51.7116 19.212 51.6719 19.0786 51.6047 18.9165L51.6051 18.9155Z" fill="white"/>
<path d="M51.605 18.9154C51.4654 18.5786 51.2073 18.1206 51.166 18.0932C51.105 18.0528 49.2498 18.3846 49.17 18.4574C49.0743 18.5438 48.793 20.1513 48.8981 20.2081C48.9237 20.2217 49.0358 20.2319 49.1747 20.1879C48.9301 19.8315 49.2634 19.0378 49.3263 18.934C49.3975 18.8175 50.2469 18.9433 50.5006 18.8614C50.7544 18.7795 51.1258 18.5231 51.1896 18.5356C51.2443 18.5462 51.5054 18.7553 51.6061 18.9158L51.605 18.9154Z" fill="white"/>
<path d="M50.4115 15.581C50.4903 15.5078 50.5633 15.3524 50.6305 15.1556C50.7426 14.8272 50.5634 13.8725 50.5936 13.6532C50.6174 13.4856 50.9156 13.1212 50.9416 12.9136C50.975 12.6548 50.7194 12.1833 50.4843 12.176C50.3939 12.1733 49.9147 12.6951 49.8659 12.7595C49.826 12.8127 49.648 13.1278 49.5999 13.3122C49.5964 13.3217 49.5834 13.3208 49.5821 13.3108C49.5681 13.2007 49.5456 13.0636 49.5632 13.0147C49.6134 12.8718 50.204 12.2606 49.9182 12.1471C49.8424 12.1172 49.1439 12.8047 49.1326 12.9682C49.0814 13.7162 49.2227 15.2333 49.2614 15.3628C49.3351 15.6085 50.2799 15.7028 50.4108 15.5795L50.4115 15.581Z" fill="white"/>
<path d="M49.9347 13.5508C49.9347 13.5508 49.9754 13.4716 50.0307 13.3519C50.0583 13.2921 50.0894 13.2227 50.1239 13.1473C50.1409 13.1102 50.1583 13.0719 50.1768 13.0341C50.1953 12.9962 50.2124 12.9591 50.2347 12.9309C50.2827 12.8722 50.3482 12.8052 50.4034 12.7466C50.4605 12.6862 50.5135 12.6304 50.5588 12.5827C50.6485 12.4858 50.7082 12.4215 50.7082 12.4215C50.7204 12.4078 50.7204 12.3875 50.7069 12.3744C50.6947 12.3642 50.678 12.3632 50.6655 12.3708C50.6655 12.3708 50.6453 12.383 50.6136 12.4067C50.583 12.4307 50.5369 12.4638 50.486 12.5072C50.435 12.5505 50.3745 12.6001 50.3135 12.6579C50.2824 12.6867 50.251 12.7164 50.2198 12.7487C50.1887 12.781 50.158 12.8122 50.1249 12.8534C50.0925 12.896 50.0742 12.9399 50.055 12.9799C50.0368 13.0202 50.0208 13.0613 50.0055 13.1003C49.975 13.1783 49.9522 13.2517 49.9307 13.3149C49.8902 13.4408 49.8701 13.5272 49.8701 13.5272C49.8662 13.5449 49.8767 13.563 49.8945 13.5679C49.91 13.5721 49.9261 13.5645 49.9326 13.55L49.9347 13.5508Z" fill="white"/>
<path d="M50.2517 13.7774C50.2517 13.7774 50.261 13.7615 50.2758 13.7307C50.2894 13.6996 50.3109 13.6568 50.3312 13.604C50.3514 13.5511 50.3758 13.4902 50.4006 13.4246C50.425 13.3601 50.45 13.2874 50.4794 13.2294C50.4846 13.2217 50.4828 13.2198 50.4899 13.2103L50.5056 13.1871L50.5366 13.1451C50.5589 13.117 50.5801 13.0885 50.601 13.061C50.6442 13.0054 50.6843 12.9547 50.7197 12.9107C50.7893 12.8224 50.834 12.7625 50.834 12.7625C50.8455 12.7474 50.8423 12.7259 50.8269 12.7146C50.8143 12.7055 50.7983 12.7059 50.7865 12.715C50.7865 12.715 50.7235 12.7613 50.6399 12.8412C50.5984 12.8818 50.5503 12.9274 50.5017 12.9811C50.4776 13.0075 50.4528 13.0359 50.4286 13.0658L50.3917 13.1141L50.3757 13.1384C50.3708 13.1451 50.3629 13.1603 50.3577 13.1681C50.3199 13.2459 50.2993 13.3165 50.2785 13.3847C50.2587 13.4532 50.243 13.5171 50.2281 13.5718C50.2011 13.6809 50.1845 13.7541 50.1845 13.7541C50.1805 13.7719 50.1922 13.7903 50.2103 13.7941C50.2251 13.7969 50.2398 13.79 50.2476 13.7784L50.2517 13.7774Z" fill="white"/>
<path d="M51.0175 18.1461C50.8047 17.1187 50.4789 16.1515 50.4112 15.5812C50.3514 15.0771 49.2292 15.0792 49.2618 15.3644C49.346 16.1056 49.4083 17.3715 49.3619 18.4956C49.3533 18.7128 51.087 18.4813 51.0175 18.1461Z" fill="white"/>
<path d="M40.9605 34.5173C40.9605 34.5173 39.6308 37.2135 39.4021 38.1544C39.2584 38.7466 39.3297 39.9842 39.4021 40.5888C39.4365 40.8776 39.6423 41.4304 39.6779 41.7181C39.7089 41.9719 39.7089 49.801 39.6905 50.0932C39.6733 50.3628 38.8412 52.6404 38.8401 53.8419C38.8378 56.4986 40.2962 63.3699 40.2962 63.3699L41.9948 63.1454C41.9913 63.2526 42.3821 58.404 42.4832 56.6148C42.5545 55.3457 43.1314 49.9488 43.09 49.546C43.0486 49.1422 44.5967 41.0423 44.5967 41.0423L44.1634 34.7012L40.9605 34.5173Z" fill="white"/>
<path d="M44.0823 34.8365L42.9974 38.4555L43.2789 40.8742L42.9974 42.0598C42.9974 42.0598 44.4834 48.225 44.3788 50.3176C44.3305 51.2754 43.9087 52.9348 43.9673 54.134C44.0409 55.6525 46.4371 63.3078 46.4371 63.3078L48.0265 63.2289C48.0265 63.2289 48.3196 57.383 48.2966 56.089C48.2747 54.8188 47.7059 49.7987 47.6921 49.3926C47.6783 48.9526 47.7472 41.5341 47.6277 39.3772C47.5392 37.7888 46.9313 34.5049 46.9313 34.5049L44.0823 34.8365Z" fill="white"/>
<path d="M43.6592 46.0592C43.9718 44.3343 44.6304 40.0587 44.7832 39.3762" stroke="white" stroke-width="1.38" stroke-linecap="round" stroke-linejoin="round"/>
<path d="M39.9919 62.4573C39.9517 62.5487 40.224 63.3654 40.2838 63.4083C40.3712 63.4715 41.964 63.3858 42.0548 63.2628C42.0985 63.203 42.2594 62.3264 42.1502 62.2272C41.9709 62.0647 40.07 62.2802 39.9919 62.4562V62.4573Z" fill="white"/>
<path d="M42.0186 62.3604C41.7634 62.3604 40.2947 62.5081 40.1211 62.5792" stroke="white" stroke-width="1.38" stroke-linecap="round" stroke-linejoin="round"/>
<path d="M40.6078 64.303C40.6181 64.5106 40.6158 64.6832 40.5871 64.743C40.7423 65.6387 41.5031 65.3803 41.8076 64.3447C41.7961 64.3075 41.7869 64.268 41.7777 64.2297C41.7479 64.0898 41.7341 63.9443 41.7283 63.8078C41.7168 63.5235 41.741 63.2787 41.7168 63.2155C41.7042 63.1817 40.4998 63.1941 40.5124 63.3069C40.517 63.3543 40.5457 63.581 40.571 63.8427C40.586 63.995 40.5997 64.1586 40.6066 64.3053L40.6078 64.303Z" fill="white"/>
<path d="M40.5718 63.8402C40.5867 63.9925 40.6005 64.1561 40.6074 64.3027C40.951 64.2723 41.4383 64.2339 41.7773 64.2283C41.7475 64.0884 41.7337 63.9429 41.7279 63.8064C41.3854 63.7917 40.9062 63.8086 40.5718 63.8402Z" fill="white"/>
<path d="M41.4556 64.8286L40.5133 64.9008L40.6454 65.3972L41.5039 65.2889L41.4556 64.8286Z" fill="white"/>
<path d="M42.9748 65.3227C42.9529 65.3103 42.8748 65.3001 42.7656 65.2934C42.7656 65.2934 42.7645 65.2922 42.7633 65.2911C42.1002 65.2065 41.937 64.4608 41.8577 64.3457C41.7554 64.198 41.7152 64.2047 41.5796 64.2329C41.3486 64.2814 41.2233 65.1952 41.0176 65.1806C40.8153 65.167 40.6947 64.8376 40.6671 64.7372C40.6441 64.6515 40.5809 64.6424 40.5682 64.6921C40.4947 64.9843 40.366 65.2403 40.3223 65.4603C40.3212 65.4603 40.32 65.4603 40.32 65.4603C40.2545 65.7085 40.3304 65.8428 40.4729 65.8428H43.0529C43.1851 65.8428 43.1747 65.4378 42.9748 65.3238V65.3227Z" fill="white"/>
<path d="M41.9199 63.1748C41.6648 63.1748 40.5535 63.2346 40.3799 63.3068" stroke="white" stroke-width="1.38" stroke-linecap="round" stroke-linejoin="round"/>
<path d="M46.0662 62.5139C46.0283 62.6064 46.326 63.4152 46.3857 63.4558C46.4754 63.5156 48.0648 63.3859 48.151 63.2595C48.1935 63.1986 48.3268 62.3176 48.2154 62.2217C48.0303 62.0637 46.1375 62.3345 46.0651 62.5127L46.0662 62.5139Z" fill="white"/>
<path d="M48.0889 62.3584C47.8337 62.3652 46.3707 62.5547 46.1984 62.6314" stroke="white" stroke-width="1.38" stroke-linecap="round" stroke-linejoin="round"/>
<path d="M46.7597 64.2072C46.777 64.4531 46.7793 64.6686 46.7471 64.7363C46.9011 65.632 47.6653 65.3804 47.9688 64.3448C47.9481 64.2749 47.932 64.2004 47.9205 64.126C47.8986 63.9816 47.8917 63.8327 47.8917 63.6973C47.8917 63.4457 47.9101 63.237 47.8894 63.1806C47.8768 63.1468 46.6356 63.1761 46.6563 63.2799C46.6643 63.3216 46.6919 63.5145 46.7172 63.7481C46.7333 63.8947 46.7494 64.0572 46.7597 64.2083V64.2072Z" fill="white"/>
<path d="M46.7176 63.747C46.7337 63.8937 46.7498 64.0561 46.7602 64.2073C47.0647 64.1791 47.5497 64.1385 47.9209 64.1249C47.8991 63.9805 47.8922 63.8316 47.8922 63.6963C47.5141 63.6872 47.0199 63.7109 46.7176 63.747Z" fill="white"/>
<path d="M47.724 64.7217L46.7828 64.795L46.9437 65.3974L47.7734 65.1819L47.724 64.7217Z" fill="white"/>
<path d="M50.2228 65.3231C50.201 65.3107 50.1228 65.3005 50.0137 65.2938C48.8701 65.1945 48.3576 64.5255 48.2771 64.4093C48.1749 64.2615 48.0197 64.0269 47.8289 64.0923C47.606 64.1679 47.5324 64.8651 47.483 65.0332C47.4451 65.1629 47.1141 65.2509 46.9394 65.1042C46.8475 65.0275 46.8555 64.8369 46.8279 64.7365C46.8049 64.6507 46.7417 64.6417 46.7291 64.6913C46.6555 64.9835 46.5268 65.2396 46.4832 65.4596C46.482 65.4596 46.4809 65.4596 46.4809 65.4596C46.4153 65.7078 46.4912 65.842 46.6337 65.842H50.301C50.4331 65.842 50.4228 65.437 50.2228 65.3231Z" fill="white"/>
<path d="M48.0146 63.175C47.7595 63.1818 46.6505 63.2743 46.4792 63.351" stroke="white" stroke-width="1.38" stroke-linecap="round" stroke-linejoin="round"/>
<path d="M44.2214 43.3799C44.4386 44.3399 45.1994 49.2844 45.127 49.9252C45.0546 50.566 44.6248 52.6281 44.6765 53.5182C44.7282 54.4072 46.4785 62.1765 46.4785 62.1765" stroke="white" stroke-width="1.38" stroke-linecap="round" stroke-linejoin="round"/>
<path d="M40.9258 36.5076C40.6695 37.013 40.0615 38.8868 40.0937 39.461C40.1259 40.0352 40.1926 42.9164 40.25 43.3789C40.3075 43.8414 40.2063 49.3906 40.1305 50.1724C40.0535 50.9553 39.5237 52.7693 39.4628 53.3029C39.4019 53.8365 40.2477 60.7315 40.3799 62.0176" stroke="white" stroke-width="1.38" stroke-linecap="round" stroke-linejoin="round"/>
<path d="M39.6504 30.1271C40.2584 31.773 40.833 33.4516 40.7675 34.5053C40.748 34.82 40.1664 35.6639 40.3928 35.7135C41.5248 35.9617 46.3804 36.669 47.2504 36.3633C47.3745 36.3193 47.0872 34.9757 47.0734 34.5053C47.0562 33.9457 47.2884 31.9828 47.4079 29.8044C47.4757 28.5737 47.5067 27.273 47.4378 26.1166C47.401 25.4894 47.2102 24.6783 46.7103 24.2959C46.6183 24.2259 46.477 24.1447 46.3046 24.0624C46.1265 23.9766 45.915 23.8898 45.6943 23.8097C45.4116 23.707 45.1128 23.6168 44.8473 23.5592C44.7163 23.531 42.8373 23.293 41.8501 23.4724C41.6065 23.5164 41.3306 23.5976 41.0433 23.7036C40.4905 23.9067 39.8941 24.2045 39.4045 24.5136C38.8781 24.8453 38.4747 25.1916 38.3828 25.4511C38.1254 26.1719 38.9138 28.1258 39.6527 30.1271H39.6504Z" fill="#FF9900"/>
<path d="M44.3406 26.6253C44.1958 26.6219 43.7487 27.5142 43.7131 27.6744C43.6775 27.8346 44.1843 28.7766 44.2935 28.8307C44.4027 28.8849 44.8555 27.7816 44.8555 27.7015C44.8555 27.6214 44.4636 26.6275 44.3418 26.6253H44.3406Z" fill="#FF9900"/>
<path d="M44.3406 29.044C44.1958 29.0406 43.7487 29.9329 43.7131 30.0931C43.6775 30.2533 44.1843 31.1953 44.2935 31.2494C44.4027 31.3036 44.8555 30.2003 44.8555 30.1202C44.8555 30.0401 44.4636 29.0462 44.3418 29.044H44.3406Z" fill="#FF9900"/>
<path d="M44.3406 31.4636C44.1958 31.4602 43.7487 32.3526 43.7131 32.5128C43.6775 32.673 44.1843 33.6149 44.2935 33.6691C44.4027 33.7221 44.8555 32.6199 44.8555 32.5399C44.8555 32.4598 44.4636 31.4659 44.3418 31.4636H44.3406Z" fill="#FF9900"/>
<path d="M45.6092 31.5349C45.4644 31.5315 45.0173 32.4239 44.9817 32.5841C44.9449 32.7443 45.4529 33.6862 45.562 33.7404C45.6712 33.7934 46.124 32.6912 46.124 32.6111C46.124 32.531 45.7321 31.5372 45.6103 31.5349H45.6092Z" fill="#FF9900"/>
<path d="M45.651 29.0441C45.4947 29.0407 45.012 30.0052 44.9729 30.1778C44.9338 30.3504 45.482 31.3691 45.5993 31.4267C45.7165 31.4842 46.2061 30.2929 46.2061 30.2061C46.2061 30.1192 45.7831 29.0464 45.651 29.043V29.0441Z" fill="#FF9900"/>
<path d="M46.8828 29.044C46.7265 29.0406 46.3438 30.0186 46.3047 30.1912C46.2656 30.3638 46.7138 31.369 46.8311 31.4277C46.9483 31.4852 47.3379 30.3232 47.3379 30.2375C47.3379 30.1518 47.0149 29.0473 46.8839 29.0451L46.8828 29.044Z" fill="#FF9900"/>
<path d="M46.8199 31.5349C46.6636 31.5315 46.1993 32.4024 46.1602 32.575C46.1211 32.7476 46.5693 33.7528 46.6865 33.8115C46.8038 33.869 47.1934 32.707 47.1934 32.6213C47.1934 32.5356 46.952 31.5383 46.821 31.5349H46.8199Z" fill="#FF9900"/>
<path d="M46.8922 33.8827C46.7359 33.8793 46.2716 34.7502 46.2325 34.9228C46.1934 35.0954 46.6772 36.2879 46.7945 36.3454C46.9117 36.4029 47.1289 35.1124 47.1289 35.0255C47.1289 34.9386 47.0243 33.885 46.8933 33.8816L46.8922 33.8827Z" fill="#FF9900"/>
<path d="M45.651 26.5544C45.4947 26.551 45.012 27.5155 44.9729 27.6881C44.9338 27.8607 45.482 28.8794 45.5993 28.9369C45.7165 28.9945 46.2061 27.8032 46.2061 27.7163C46.2061 27.6294 45.7831 26.5566 45.651 26.5532V26.5544Z" fill="#FF9900"/>
<path d="M46.9189 26.5903C46.7626 26.587 46.2799 27.5515 46.2409 27.7241C46.2018 27.8967 46.75 28.9154 46.8672 28.9729C46.9844 29.0304 47.374 27.8504 47.374 27.7647C47.374 27.679 47.0511 26.5926 46.9201 26.5903H46.9189Z" fill="#FF9900"/>
<path d="M46.6781 24.3904C46.5218 24.387 46.2793 25.0255 46.2391 25.1981C46.2 25.3707 46.7482 26.3894 46.8655 26.4469C46.9827 26.5045 47.2539 25.3594 47.2539 25.2737C47.2539 25.188 46.8092 24.3927 46.677 24.3904H46.6781Z" fill="#FF9900"/>
<path d="M45.4891 23.9133C45.3328 23.91 45.011 24.9546 44.9719 25.1272C44.9329 25.2998 45.4811 26.3185 45.5983 26.376C45.7155 26.4335 46.2051 25.2423 46.2051 25.1554C46.2051 25.0685 45.6201 23.9156 45.4891 23.9133Z" fill="#FF9900"/>
<path d="M44.2363 33.7754C44.0823 33.772 43.6065 34.7219 43.5675 34.8922C43.5284 35.0626 44.0685 36.0655 44.1846 36.123C44.3007 36.1794 44.7822 35.0062 44.7822 34.9204C44.7822 34.8347 44.365 33.7777 44.2352 33.7754H44.2363Z" fill="#FF9900"/>
<path d="M45.6133 33.8115C45.4593 33.8081 44.9835 34.758 44.9444 34.9284C44.9053 35.0987 45.4351 36.1828 45.5512 36.2392C45.6673 36.2956 46.1592 35.0423 46.1592 34.9566C46.1592 34.8708 45.742 33.8138 45.6121 33.8115H45.6133Z" fill="#FF9900"/>
<path d="M43.0359 31.4636C42.8911 31.4602 42.4441 32.3526 42.4084 32.5128C42.3728 32.673 42.8796 33.6149 42.9888 33.6691C43.098 33.7221 43.5508 32.6199 43.5508 32.5399C43.5508 32.4598 43.1589 31.4659 43.0371 31.4636H43.0359Z" fill="#FF9900"/>
<path d="M43.003 33.7516C42.8582 33.7392 42.3479 34.6293 42.3008 34.7917C42.2537 34.9542 42.6904 35.9616 42.795 36.0236C42.8996 36.0857 43.4317 34.979 43.4374 34.8966C43.4432 34.8143 43.1248 33.7629 43.003 33.7516Z" fill="#FF9900"/>
<path d="M43.0359 29.044C42.8911 29.0406 42.4441 29.9329 42.4084 30.0931C42.3728 30.2533 42.8796 31.1953 42.9888 31.2494C43.098 31.3024 43.5508 30.2003 43.5508 30.1202C43.5508 30.0401 43.1589 29.0462 43.0371 29.044H43.0359Z" fill="#FF9900"/>
<path d="M43.1453 26.6614C43.0005 26.658 42.5534 27.5503 42.5178 27.7105C42.481 27.8707 42.989 28.8127 43.0982 28.8668C43.2073 28.9199 43.6602 27.8177 43.6602 27.7376C43.6602 27.6575 43.2683 26.6636 43.1464 26.6614H43.1453Z" fill="#FF9900"/>
<path d="M42.5541 25.434C42.5173 25.5942 43.0253 26.5361 43.1344 26.5903C43.2436 26.6433 43.4551 26.1571 43.4551 26.077C43.4551 25.9969 42.5908 25.2738 42.5541 25.434Z" fill="#FF9900"/>
<path d="M41.8767 26.6614C41.7319 26.658 41.2849 27.5503 41.2492 27.7105C41.2136 27.8707 41.7204 28.8127 41.8296 28.8668C41.9388 28.9199 42.3916 27.8177 42.3916 27.7376C42.3916 27.6575 41.9997 26.6636 41.8779 26.6614H41.8767Z" fill="#FF9900"/>
<path d="M40.5233 24.0297C40.4866 24.1899 41.4669 24.4031 41.5749 24.4561C41.6841 24.5091 41.283 23.8717 41.283 23.7916C41.283 23.7115 40.559 23.8683 40.5233 24.0285V24.0297Z" fill="#FF9900"/>
<path d="M40.6816 26.7324C40.5368 26.729 40.2863 27.6755 40.2495 27.8357C40.2127 27.9959 40.5241 28.8837 40.6333 28.9379C40.7425 28.9909 41.1953 27.8887 41.1953 27.8086C41.1953 27.7286 40.8034 26.7347 40.6816 26.7324Z" fill="#FF9900"/>
<path d="M41.7322 29.044C41.5874 29.0406 41.1403 29.9329 41.1047 30.0931C41.0679 30.2533 41.5759 31.1953 41.6851 31.2494C41.7943 31.3024 42.2471 30.2003 42.2471 30.1202C42.2471 30.0401 41.8552 29.0462 41.7334 29.044H41.7322Z" fill="#FF9900"/>
<path d="M40.5866 29.0474C40.4418 29.044 39.8729 29.9341 39.8362 30.0943C39.7994 30.2545 40.3074 31.1964 40.4165 31.2506C40.5257 31.3047 40.9785 30.2014 40.9785 30.1213C40.9785 30.0412 40.7085 29.0508 40.5866 29.0474Z" fill="#FF9900"/>
<path d="M41.7322 31.4277C41.5874 31.4244 41.1403 32.3167 41.1047 32.4769C41.0679 32.6371 41.5759 33.5791 41.6851 33.6332C41.7943 33.6862 42.2471 32.5841 42.2471 32.504C42.2471 32.4239 41.8552 31.43 41.7334 31.4277H41.7322Z" fill="#FF9900"/>
<path d="M40.5722 31.4276C40.4274 31.4243 40.3596 32.1902 40.4056 32.3482C40.5067 32.699 40.6297 33.3781 40.7389 33.4312C40.848 33.4842 41.0859 32.5828 41.0859 32.5027C41.0859 32.4226 40.694 31.4288 40.5722 31.4265V31.4276Z" fill="#FF9900"/>
<path d="M41.6378 33.7448C41.4942 33.7302 40.9782 34.5289 40.9299 34.6755C40.8816 34.8222 41.3126 35.745 41.4172 35.8036C41.5218 35.8623 42.0596 34.8673 42.0654 34.7928C42.0711 34.7184 41.7596 33.7572 41.6378 33.7448Z" fill="#FF9900"/>
<path d="M41.62 24.4426C41.4752 24.4393 41.3212 25.203 41.2844 25.3632C41.2476 25.5234 41.7556 26.4653 41.8648 26.5195C41.974 26.5725 42.4268 25.4703 42.4268 25.3903C42.4268 25.3102 41.743 24.4449 41.6211 24.4426H41.62Z" fill="#FF9900"/>
<path d="M40.249 24.4426C40.1042 24.4393 40.1582 25.3598 40.249 25.6836C40.2938 25.8415 40.5605 26.5725 40.6685 26.6267C40.7765 26.6808 41.2305 25.5775 41.2305 25.4974C41.2305 25.4173 40.3708 24.446 40.249 24.4438V24.4426Z" fill="#FF9900"/>
<path d="M44.351 27.0879C44.9612 26.9987 45.8151 24.9535 45.691 23.8084C45.4083 23.7058 45.1095 23.6155 44.844 23.558C44.713 23.5298 42.8339 23.2918 41.8467 23.4711C41.6031 23.5151 41.3273 23.5964 41.04 23.7024C40.7389 24.113 43.7407 27.1759 44.351 27.0867V27.0879Z" fill="#FF9900"/>
<path d="M39.649 30.127C41.3339 27.7298 40.7822 24.9242 39.9076 24.5745C39.7628 24.5158 39.5629 24.4594 39.4008 24.5136C38.8744 24.8452 38.4711 25.1916 38.3791 25.451C38.1217 26.1719 38.9101 28.1258 39.649 30.127Z" fill="#FF9900"/>
<path d="M46.3026 24.0622C47.06 25.1463 47.1887 28.3321 47.4059 29.8031C47.4737 28.5724 47.5048 27.2716 47.4358 26.1153C47.399 25.4881 47.2082 24.677 46.7083 24.2946C46.6164 24.2246 46.475 24.1434 46.3026 24.061V24.0622Z" fill="#FF9900"/>
<path d="M40.1068 36.2402C41.6733 36.9419 46.1956 37.0829 47.3057 36.7276C47.3057 36.7276 47.3506 36.1579 47.2713 36.0744C47.192 35.9909 46.33 36.4106 43.6948 36.124C41.0596 35.8375 40.5608 35.3761 40.3849 35.4404C40.2091 35.5047 40.1068 36.2391 40.1068 36.2391V36.2402Z" fill="#FF9900"/>
<path d="M41.4568 23.8692C41.497 23.9245 42.0739 24.5258 42.7003 25.1282C43.3668 25.769 44.0897 26.4097 44.2851 26.3951C44.6333 26.368 45.0631 24.3915 45.0654 23.8907C45.0654 23.8444 45.062 23.8106 45.0551 23.7925C44.9712 23.5894 44.7103 22.9193 44.5448 22.7986C44.5126 22.7761 44.377 22.74 44.1862 22.7005C43.784 22.6181 43.1347 22.5223 42.6888 22.5053C42.444 22.4952 42.2612 22.5087 42.213 22.5606C42.1268 22.652 41.3729 23.7575 41.4568 23.8703V23.8692Z" fill="white"/>
<path d="M41.4568 23.8692C41.497 23.9245 43.0037 24.9725 43.3898 24.9364C43.5335 24.9229 43.8415 23.6199 43.8771 23.603C43.9139 23.5849 44.3747 24.9906 44.5471 24.9725C44.7195 24.9545 44.97 24.3915 45.0654 23.8907C45.0654 23.8444 45.062 23.8106 45.0551 23.7925C44.9712 23.5894 44.7103 22.9193 44.5448 22.7986C44.5126 22.7761 44.377 22.74 44.1862 22.7005L44.2081 22.731C44.2667 22.7682 44.3943 22.8246 44.4931 22.8866C44.554 22.925 44.9229 23.594 44.9712 23.7271C45.0286 23.8884 44.6839 24.3735 44.5747 24.3735C44.4586 24.3735 44.0047 23.462 43.8874 23.462C43.7702 23.462 43.3921 24.5811 43.3094 24.6172C43.2266 24.6533 41.5591 23.9256 41.5223 23.8286C41.4855 23.7305 42.1337 22.8765 42.2659 22.7231C42.398 22.5708 42.7095 22.5538 42.7095 22.5538L42.6899 22.5053C42.4451 22.4952 42.2624 22.5087 42.2141 22.5606C42.1279 22.652 41.374 23.7575 41.4579 23.8703L41.4568 23.8692Z" fill="white"/>
<path d="M44.3494 22.8676C44.3437 22.8451 44.3437 22.8214 44.3414 22.7977C44.2816 22.2483 44.2873 21.5579 44.2678 21.1427C44.2678 21.1394 44.2678 21.1371 44.2678 21.1371L44.2632 21.1348L42.2658 19.9548C42.2658 19.9548 42.5416 21.5985 42.3876 22.6409C42.3738 22.7311 43.2944 23.2681 43.8805 23.3065C44.1747 23.3256 44.3747 22.9669 44.3506 22.8687L44.3494 22.8676Z" fill="white"/>
<path d="M44.3416 22.7975C44.2819 22.2481 44.2876 21.5577 44.2681 21.1426C44.2681 21.1392 44.2681 21.1369 44.2681 21.1369L44.2635 21.1347L42.4546 20.2593C42.2937 21.5182 43.3234 22.6915 44.3428 22.7987L44.3416 22.7975Z" fill="white"/>
<path d="M42.2299 19.3185C42.2655 19.8329 42.3897 20.4285 42.5103 20.855C42.6264 21.2634 43.6125 22.2076 44.4089 22.4016C44.5629 22.4388 45.1272 22.2944 45.2536 22.1974C45.4409 22.053 45.7662 20.23 45.6938 19.7235C45.6524 19.4358 45.6168 18.8808 45.5949 18.6168C45.5719 18.3348 45.4179 18.0268 45.3007 17.9467C45.1295 17.8283 44.8789 17.7121 44.6273 17.6026C44.325 17.4718 43.9975 17.3759 43.7216 17.3883C43.1815 17.4108 42.5425 17.9648 42.2667 18.3427C42.1805 18.4589 42.2196 19.1718 42.2299 19.3196V19.3185Z" fill="white"/>
<path d="M42.1556 18.8515C42.1533 18.8594 42.197 18.9598 42.251 19.0805C42.3395 19.2768 42.6625 19.5013 42.7073 19.3749C42.8119 19.0816 43.4359 18.266 43.6164 18.2603C43.7186 18.231 44.3772 18.7342 44.9322 18.6744C45.2977 18.6349 45.3919 18.2998 45.3046 17.9817C45.3046 17.9817 45.308 17.9242 45.2747 17.9005C45.1035 17.7933 44.8886 17.6275 44.6369 17.5282L43.8933 17.5L42.8555 17.6839L42.5602 17.7358C42.5602 17.7358 42.5188 17.8508 42.4613 18.0077C42.3912 18.2006 42.2982 18.4555 42.2338 18.6349C42.189 18.7578 42.1579 18.8458 42.1556 18.8515Z" fill="white"/>
<path d="M41.7565 19.4405C41.4715 19.7044 42.1564 20.8585 42.4725 20.2877C42.7862 19.7214 42.1024 19.1201 41.7565 19.4405Z" fill="white"/>
<path d="M42.3037 19.9378C42.2612 19.702 41.9049 19.5542 41.8291 19.5723" stroke="white" stroke-width="1.04" stroke-linecap="round" stroke-linejoin="round"/>
<path d="M42.0052 19.9378C42.0396 19.8385 42.1465 19.7934 42.2178 19.7979" stroke="white" stroke-width="1.04" stroke-linecap="round" stroke-linejoin="round"/>
<path d="M41.7055 18.1362C41.8422 17.6601 42.0525 17.483 42.3571 17.2912C43.0363 16.8625 44.7441 16.6922 45.0555 16.9505C45.5003 17.3194 45.8267 19.3917 45.6968 19.7516C45.6187 19.3782 45.4371 18.3787 45.3038 17.9816C45.2176 18.2038 45.036 18.3403 44.7728 18.3787C44.3165 18.4453 43.6419 18.0256 43.4891 18.0549C43.3972 18.0719 42.9811 18.7566 42.7214 19.2451C42.6294 19.4188 42.934 20.0607 42.8742 20.1701C42.8248 20.2593 42.5961 20.1961 42.5513 20.125C42.495 20.037 42.2881 19.4707 42.1307 19.3838C42.0031 19.3128 41.8273 19.3906 41.7549 19.4425C41.6572 19.2981 41.5112 18.8142 41.7055 18.1373V18.1362Z" fill="white"/>
<path d="M43.7305 19.9707C43.0719 19.6424 42.0824 19.3367 41.9376 19.3367" stroke="white" stroke-width="0.52" stroke-linecap="round" stroke-linejoin="round"/>
<path d="M45.1079 19.8509C45.1768 20.09 45.3941 20.2389 45.5929 20.1837C45.7917 20.1284 45.8986 19.8904 45.8296 19.6512C45.7607 19.412 45.5434 19.2631 45.3446 19.3184C45.1458 19.3737 45.0389 19.6117 45.1079 19.8509Z" stroke="white" stroke-width="0.52" stroke-linecap="round" stroke-linejoin="round"/>
<path d="M45.3848 19.4324C45.3399 19.4458 45.2917 19.4737 45.2537 19.5207" stroke="white" stroke-width="0.59" stroke-miterlimit="10" stroke-linecap="round"/>
<path d="M45.5 19.4327C45.4942 19.4303 45.4872 19.4291 45.4802 19.4255" stroke="white" stroke-width="0.59" stroke-miterlimit="10" stroke-linecap="round"/>
<path d="M45.0967 19.594C44.9496 19.2984 44.6232 19.5229 44.591 19.7237" stroke="white" stroke-width="0.52" stroke-linecap="round" stroke-linejoin="round"/>
<path d="M43.7601 20.1014C43.8325 20.353 44.0911 20.5019 44.337 20.4342C44.583 20.3665 44.7243 20.107 44.6519 19.8555C44.5795 19.6039 44.321 19.455 44.075 19.5227C43.8291 19.5904 43.6877 19.8498 43.7601 20.1014Z" stroke="white" stroke-width="0.52" stroke-linecap="round" stroke-linejoin="round"/>
<path d="M43.8945 19.8C43.8819 19.8246 43.8704 19.8515 43.8635 19.8805" stroke="white" stroke-width="0.59" stroke-miterlimit="10" stroke-linecap="round"/>
<path d="M44.1348 19.6221C44.0716 19.6377 44.0037 19.669 43.9509 19.7215" stroke="white" stroke-width="0.59" stroke-miterlimit="10" stroke-linecap="round"/>
<path d="M44.2979 19.6222C44.2897 19.6186 44.2804 19.6174 44.271 19.615" stroke="white" stroke-width="0.59" stroke-miterlimit="10" stroke-linecap="round"/>
<path d="M35.685 34.1747C35.685 34.4093 35.6689 34.6755 35.8987 34.9508C35.8987 35.2046 36.0481 35.4663 36.1849 35.719C36.5572 36.4106 37.0204 37.0446 37.3146 37.2939C37.3157 37.295 37.302 37.2961 37.3031 37.2973C37.5847 37.5342 39.0534 36.4726 39.0534 36.4726C39.0534 36.4726 39.004 36.3373 38.9339 36.1263C38.7167 35.4686 38.2708 34.0765 38.2708 33.7539C38.2708 33.3387 39.9119 29.1185 40.1314 28.0197C40.1372 27.9915 40.1418 27.9655 40.1452 27.9418C40.2693 27.1499 40.2762 26.543 40.2073 26.0861C40.2073 26.0782 40.205 26.0714 40.2038 26.0635C40.0912 25.3449 39.7901 25.0042 39.4626 24.9005C39.1247 24.7922 38.7604 24.9354 38.5489 25.1757C38.5236 25.2039 38.5282 25.2344 38.5029 25.2682C37.2962 26.825 35.6838 33.1548 35.6838 34.1758L35.685 34.1747Z" fill="white"/>
<path d="M36.1247 35.7189C36.4971 36.4104 36.9901 37.0444 37.2843 37.2937L38.9301 36.1261C38.7129 35.4684 38.2681 34.0763 38.2681 33.7537C38.2681 33.3385 39.9104 29.1183 40.1299 28.0195C39.9678 28.4358 39.738 27.3596 39.607 27.4205C39.4013 27.5152 40.0115 28.3455 39.9138 28.4459C39.8288 28.5328 39.4231 27.9078 39.384 28.0364C39.33 28.2147 39.7909 28.6016 39.7713 28.8329C39.7564 29.0089 37.8957 33.3543 37.8119 33.4333C37.6992 33.5405 37.228 33.2889 37.1671 33.4908C37.1303 33.6138 37.8337 33.5123 37.8119 33.6702C37.79 33.8281 37.2073 34.0605 37.2453 34.1846C37.2832 34.3087 37.8682 33.8349 37.9383 33.906C38.0084 33.9771 38.0888 34.8107 38.0716 34.9314C38.0532 35.0533 36.6902 35.9343 36.1259 35.7189H36.1247Z" fill="white"/>
<path d="M36.1253 35.7188C36.4252 35.9625 37.1918 35.7008 36.9757 35.5992C36.5218 35.7075 35.8127 34.4485 35.8702 34.0233C36.3264 30.6265 38.2123 24.9036 39.4639 24.8991C39.126 24.7908 38.7938 24.907 38.5697 25.1349C37.2653 26.4638 35.5805 33.1298 35.5805 34.171C35.5805 34.9156 36.0299 35.4424 36.1264 35.7177L36.1253 35.7188Z" fill="white"/>
<path d="M36.6797 36.8785C36.9257 37.1504 37.3245 37.4979 37.3727 37.5103C37.444 37.5283 39.0805 36.6089 39.1311 36.5142C39.192 36.4013 38.9116 34.7938 38.7932 34.7746C38.7645 34.7701 38.7139 34.7881 38.6461 34.8231C38.1106 35.0984 36.5051 36.4465 36.4855 36.5841C36.4786 36.6337 36.5614 36.7465 36.6797 36.8774V36.8785Z" fill="white"/>
<path d="M36.6797 36.8786C36.9257 37.1504 37.3245 37.4979 37.3727 37.5103C37.444 37.5284 39.0805 36.609 39.1311 36.5142C39.192 36.4014 38.9116 34.7938 38.7932 34.7746C38.7645 34.7701 38.6553 34.7972 38.5392 34.8841C38.8909 35.1402 38.8461 35.9975 38.8219 36.116C38.7944 36.2491 37.9508 36.4081 37.7394 36.5683C37.5279 36.7285 37.2647 37.0918 37.2003 37.1008C37.1452 37.1087 36.828 36.997 36.6786 36.8786H36.6797Z" fill="white"/>
<path d="M38.9371 39.6322C38.8877 39.7269 38.8716 39.8973 38.8751 40.1049C38.8808 40.4512 39.3738 41.2928 39.4198 41.5094C39.4543 41.6752 39.2968 42.1163 39.3428 42.3205C39.3991 42.5754 39.8002 42.9364 40.0243 42.8665C40.1105 42.8394 40.3852 42.1907 40.4093 42.114C40.4288 42.0508 40.4898 41.6955 40.4725 41.506C40.4725 41.4958 40.4851 41.4924 40.4897 41.5015C40.5403 41.6007 40.6081 41.7226 40.6081 41.7745C40.6093 41.9256 40.2599 42.695 40.5679 42.7085C40.6495 42.7119 41.0747 41.8354 41.0299 41.6774C40.8242 40.9554 40.176 39.5713 40.0956 39.4618C39.9427 39.2543 39.0199 39.4742 38.9383 39.6333L38.9371 39.6322Z" fill="white"/>
<path d="M40.0742 41.391C40.0742 41.391 40.0627 41.479 40.0512 41.6098C40.0454 41.6753 40.0397 41.7508 40.0328 41.8332C40.0293 41.8738 40.0259 41.9155 40.0213 41.9573C40.0167 41.999 40.0133 42.0396 40.0018 42.0735C39.9765 42.1445 39.9374 42.2292 39.9052 42.3025C39.8719 42.3781 39.8409 42.448 39.8144 42.5078C39.7627 42.6285 39.7282 42.7086 39.7282 42.7086C39.7213 42.7255 39.7282 42.7447 39.7455 42.7526C39.7604 42.7582 39.7765 42.7537 39.7857 42.7424C39.7857 42.7424 39.8007 42.7244 39.8225 42.6917C39.8432 42.659 39.8754 42.6127 39.9087 42.5552C39.942 42.4976 39.9822 42.4311 40.0202 42.3566C40.0397 42.3194 40.0592 42.281 40.0776 42.2404C40.096 42.1998 40.1144 42.1603 40.1316 42.1107C40.1477 42.0599 40.15 42.0126 40.1546 41.9686C40.1581 41.9246 40.1592 41.8806 40.1604 41.8388C40.1627 41.7553 40.1592 41.6786 40.1581 41.6121C40.1535 41.4801 40.1431 41.3921 40.1431 41.3921C40.1408 41.374 40.1247 41.3605 40.1063 41.3616C40.0903 41.3628 40.0776 41.3752 40.0765 41.391H40.0742Z" fill="white"/>
<path d="M39.7002 41.2806C39.7002 41.2806 39.6968 41.2986 39.6933 41.3324C39.691 41.3663 39.6853 41.4137 39.6841 41.4701C39.683 41.5265 39.6807 41.5919 39.6795 41.6619C39.6784 41.7307 39.6795 41.8074 39.6715 41.8717C39.6692 41.8807 39.6715 41.8818 39.668 41.8931L39.6611 41.9202L39.6462 41.9698C39.6347 42.0037 39.6244 42.0375 39.614 42.0702C39.5922 42.1368 39.5715 42.1977 39.5531 42.2507C39.5175 42.3568 39.4957 42.4278 39.4957 42.4278C39.4899 42.4459 39.5002 42.4651 39.5186 42.4707C39.5336 42.4752 39.5485 42.4696 39.5566 42.4572C39.5566 42.4572 39.6002 42.3929 39.652 42.2902C39.6772 42.2383 39.7071 42.1797 39.7347 42.1131C39.7485 42.0804 39.7623 42.0454 39.7749 42.0093L39.7933 41.9518L39.8002 41.9236C39.8025 41.9157 39.8048 41.8988 39.8071 41.8897C39.8163 41.804 39.8117 41.7307 39.8083 41.6596C39.8037 41.5885 39.7968 41.5231 39.7922 41.4667C39.7807 41.355 39.7715 41.2806 39.7715 41.2806C39.7692 41.2625 39.7519 41.249 39.7335 41.2512C39.7186 41.2535 39.7071 41.2648 39.7037 41.2783L39.7002 41.2806Z" fill="white"/>
<path d="M37.4952 37.4122C38.0446 38.3113 38.6801 39.1168 38.9375 39.6323C39.1651 40.0881 40.2224 39.7192 40.0948 39.4609C39.7638 38.7896 39.2754 37.6164 38.9375 36.5413C38.872 36.3337 37.3159 37.1189 37.4952 37.4122Z" fill="white"/>
<path fill-rule="evenodd" clip-rule="evenodd" d="M43.4659 19.6187C43.6868 19.545 43.8649 19.4019 43.9839 19.2216L42.1394 16.7515C42.0424 17.0682 41.8404 17.9041 42.2011 18.9862C42.3757 19.5101 42.942 19.7933 43.4659 19.6187ZM44.735 19.4056C44.4592 19.4492 44.1919 19.3756 43.9839 19.2216L42.1394 16.7514C42.2679 16.3321 42.6282 15.929 43.1704 15.8387L43.1704 15.8387L43.1759 15.8378L43.1808 15.837C43.191 15.8353 43.2013 15.8339 43.2116 15.8325C43.4525 15.8014 43.7616 15.7844 44.076 15.9005C44.3764 16.0114 44.5726 16.2113 44.6389 16.2788L44.6502 16.2902C45.0355 16.6721 45.414 17.2952 45.5667 18.2618C45.6529 18.8073 45.2805 19.3194 44.735 19.4056Z" fill="#FF9900"/>
<path d="M34.5179 65.2726C34.4656 65.2312 34.1355 65.1854 33.7076 65.1308C33.0052 65.0413 31.8515 64.8351 31.5359 64.5264C31.2691 64.2646 31.2892 63.5042 31.2892 63.5042C31.2892 63.5042 30.1877 63.6231 29.8943 63.8991C30.0377 64.3148 29.7954 64.9879 29.7332 65.4177C29.6642 65.6807 29.7432 65.8225 29.8943 65.8225H34.5179C34.6579 65.8225 34.7068 65.4243 34.5179 65.2726Z" fill="white"/>
<path d="M31.4785 64.4991C32.2176 64.0048 32.7889 63.9557 32.8211 64.2121C32.8634 64.558 32.2109 64.6594 31.4785 64.4991Z" stroke="white" stroke-width="0.5" stroke-linecap="round" stroke-linejoin="round"/>
<path d="M31.4785 64.499C31.9375 63.7452 32.4821 63.5466 32.62 63.767C32.8056 64.0637 32.2109 64.343 31.4785 64.499Z" stroke="white" stroke-width="0.5" stroke-linecap="round" stroke-linejoin="round"/>
<path d="M32.5588 64.8373C32.0665 64.9355 31.4785 64.498 31.4785 64.498C31.4785 64.498 31.8208 65.1439 32.3966 65.2345" stroke="white" stroke-width="0.5" stroke-linecap="round" stroke-linejoin="round"/>
<path d="M25.8039 65.2726C25.7805 65.2595 25.6983 65.2486 25.5816 65.2409C25.5816 65.2409 25.5805 65.2398 25.5793 65.2387C24.8769 65.1493 24.5102 64.1761 24.5102 63.5314C24.2556 63.3393 23.561 63.5717 23.2665 63.8477C23.431 64.4871 23.0753 65.0118 22.9942 65.4188C22.9919 65.4188 22.9919 65.4188 22.9919 65.4188C22.923 65.6817 23.0019 65.8235 23.1531 65.8235H25.8861C26.0261 65.8235 26.015 65.3947 25.8039 65.2737V65.2726Z" fill="white"/>
<path d="M34.1722 42.0802C34.3712 41.957 33.1953 27.5734 32.7452 26.2773H30.25L32.8696 42.2821C32.8696 42.2821 34.0266 42.1697 34.1711 42.0802H34.1722Z" fill="white"/>
<path d="M29.847 64.499C29.8948 64.6321 31.4564 64.3888 31.433 64.1695C31.3097 63.0196 31.6853 53.8411 32.1999 51.0842C32.5289 49.3223 32.8168 41.1596 32.4655 36.4607C32.4655 36.4607 29.9904 36.6745 27.5186 37.0193C27.3096 38.9034 27.6108 43.9743 28.0432 49.2656C28.1977 51.153 27.2107 53.3142 27.2952 55.1285C27.4197 57.8167 29.7381 64.1946 29.847 64.499Z" fill="white"/>
<path d="M23.2609 64.3366C23.2809 64.4784 24.6291 64.4075 24.6591 64.2635C25.0648 62.2834 26.0784 56.8983 27.9056 51.1379C29.1382 47.2518 30.8698 37.05 30.8809 36.8318C30.8809 36.8318 24.987 36.8209 24.159 37.2464C24.1445 37.8072 23.8022 43.2152 23.4388 49.0508C23.3676 50.1985 22.4185 52.6391 22.2684 53.7791C21.8183 57.2168 23.2254 64.0955 23.2598 64.3366H23.2609Z" fill="white"/>
<path d="M27.6279 52.0302C27.9925 50.8683 28.7583 48.1736 29.1217 46.6495C29.6374 44.4893 30.0986 42.2528 30.3509 40.7571" stroke="white" stroke-width="0.5" stroke-linecap="round" stroke-linejoin="round"/>
<path d="M24.375 64.6752C24.6128 64.1864 25.0785 63.9322 25.2141 64.1362C25.3786 64.3828 25.0808 64.6425 24.375 64.6752Z" stroke="white" stroke-width="0.5" stroke-linecap="round" stroke-linejoin="round"/>
<path d="M24.3753 64.6753C23.8985 64.887 23.4273 64.5913 23.4762 64.3371C23.5428 63.9945 24.1141 64.4146 24.3753 64.6753Z" stroke="white" stroke-width="0.5" stroke-linecap="round" stroke-linejoin="round"/>
<path d="M25.092 65.0027C24.6674 64.9503 24.3751 64.6765 24.3751 64.6765C24.3751 64.6765 24.0595 64.9907 23.7305 65.0387" stroke="white" stroke-width="0.5" stroke-linecap="round" stroke-linejoin="round"/>
<path d="M32.3248 37.821C31.6913 38.5061 27.7924 38.5225 25.2806 37.9072C24.9449 37.8242 25.1905 23.7418 26.362 23.2149C27.1511 22.8603 28.6626 22.8309 29.5084 23.2313C29.9574 23.4429 31.6779 24.7815 32.2826 25.8431C32.4248 26.0929 32.0881 33.4309 32.1703 34.3724C32.3248 36.5685 32.5838 37.5406 32.3248 37.821Z" fill="white"/>
<path d="M21.4941 32.6402C21.7398 32.5692 22.4944 32.3729 22.7023 32.4743C22.9101 32.5769 21.9876 32.7034 21.9487 32.806C21.9098 32.9085 22.6545 32.7547 22.7623 32.8191" stroke="white" stroke-width="0.69" stroke-linecap="round" stroke-linejoin="round"/>
<path d="M23.7307 31.2149C23.7307 31.2149 23.7307 31.2171 23.7307 31.2182C23.7429 31.3087 23.7118 34.8304 23.6162 35.2745C23.4428 36.0796 21.4956 41.2651 21.5612 41.4298C21.6746 41.7167 24.3086 42.5415 24.562 42.2928C24.6999 42.1575 25.3289 38.9216 25.5801 38.5332C25.8469 38.1208 26.5393 37.5579 26.7782 37.1728C27.2406 36.4287 28.4343 30.0377 28.3453 28.0467C28.2809 26.6153 26.9216 24.0068 26.4181 23.1515C26.4015 23.1242 26.3681 23.1133 26.3381 23.1264C25.1789 23.6282 23.7785 24.0373 22.986 24.6385C22.9838 24.6407 22.9816 24.6417 22.9794 24.6439C22.6237 24.9669 22.706 26.2979 23.3072 29.117L23.7285 31.2149H23.7307Z" fill="white"/>
<path d="M26.6819 23.1375C26.5296 23.6339 28.3424 24.5699 29.167 24.3877C29.5194 24.3103 29.4605 23.4517 29.2882 22.9913C28.9948 22.2079 28.9559 21.1922 28.9559 21.1922L28.9503 21.1901L26.7675 19.9529C26.7675 19.9529 27.002 22.0956 26.6819 23.1364V23.1375Z" fill="white"/>
<path d="M26.9771 20.2793C26.8182 21.7347 28.1208 23.0569 29.2878 22.9926C29.0244 22.1983 28.9554 21.1935 28.9554 21.1935L28.9499 21.1914L26.9771 20.2793Z" fill="white"/>
<path d="M30.6364 21.1717C30.522 23.1496 27.7745 22.7558 27.0521 20.9229C26.7075 20.0491 26.6197 18.3809 26.7387 18.2108C26.8931 17.9915 27.1243 17.7602 27.3444 17.5867C27.989 17.0783 28.4603 17.0292 29.276 17.3663C29.5506 17.4798 29.7729 17.7198 29.9607 17.8442C30.2541 18.0384 30.1652 18.4617 30.303 19.3094C30.3275 19.4588 30.3675 19.6258 30.4108 19.8025C30.4831 20.0905 30.5653 20.4025 30.6086 20.7015C30.632 20.864 30.6442 21.0222 30.6364 21.1717Z" fill="white"/>
<path d="M26.627 18.764C26.6247 18.7727 27.0215 19.5724 27.2483 19.4098C27.5583 19.1873 27.705 18.9418 27.7906 18.6679C27.834 18.5294 27.7995 18.2294 27.6673 17.9457C28.9787 18.621 30.1924 18.3647 30.0146 17.7635L27.0437 17.5508C27.0437 17.5508 26.6292 18.7585 26.6281 18.764H26.627Z" fill="white"/>
<path d="M28.8982 20.6936C28.8926 20.4339 28.6403 20.2267 28.3347 20.231C28.0291 20.2354 27.7857 20.4503 27.7901 20.71C27.7957 20.9696 28.048 21.1769 28.3536 21.1725C28.6592 21.1682 28.9026 20.9533 28.8982 20.6936Z" fill="white"/>
<path d="M30.6076 20.7015C30.3197 20.6884 30.0896 20.4887 30.0841 20.24C30.0796 20.0469 30.2141 19.8778 30.4097 19.8025C30.482 20.0905 30.5642 20.4025 30.6076 20.7015Z" fill="white"/>
<path d="M26.2084 19.4086C25.905 19.6999 26.6697 20.9338 26.9998 20.3108C27.3277 19.6933 26.5774 19.0551 26.2084 19.4086Z" fill="white"/>
<path d="M26.8092 19.9354C26.7592 19.6812 26.3702 19.5285 26.2891 19.5492" stroke="white" stroke-width="1.04" stroke-linecap="round" stroke-linejoin="round"/>
<path d="M26.4863 19.941C26.5219 19.833 26.6353 19.7828 26.7131 19.785" stroke="white" stroke-width="1.04" stroke-linecap="round" stroke-linejoin="round"/>
<path d="M30.4248 18.0273C30.4081 17.9488 30.267 17.8004 30.0802 17.7284C30.1603 17.6193 30.2714 16.9778 30.2381 16.8698C29.9802 16.0526 26.7093 17.1698 26.5993 17.2702C26.2892 17.5538 26.0391 18.9525 26.148 19.1074C26.2536 19.259 26.4259 19.2383 26.6137 19.3387C26.6826 19.3758 26.8104 19.5056 26.8816 19.6813C26.926 19.7904 26.8927 20.1842 26.9227 20.338C26.9494 20.4777 27.1727 20.4395 27.2005 20.4231C27.2717 20.3806 27.2494 19.5809 27.2983 19.3256C27.3206 19.2067 27.824 18.6874 27.624 17.9019C28.6587 18.227 29.7357 17.9771 30.0158 17.7644C30.0136 18.2903 30.2925 19.3758 30.3425 19.51C30.2836 19.0801 30.487 18.3164 30.427 18.0284L30.4248 18.0273Z" fill="white"/>
<path d="M30.0894 19.2363C30.0183 19.2592 29.9427 19.3062 29.8838 19.3825" stroke="white" stroke-width="1.04" stroke-miterlimit="10" stroke-linecap="round"/>
<path d="M30.274 19.2333C30.2652 19.2288 30.2542 19.2277 30.2432 19.2231" stroke="white" stroke-width="1.04" stroke-miterlimit="10" stroke-linecap="round"/>
<path d="M28.0458 19.749C28.0258 19.7883 28.0092 19.8319 27.998 19.8799" stroke="white" stroke-width="1.04" stroke-miterlimit="10" stroke-linecap="round"/>
<path d="M28.4237 19.46C28.3237 19.4861 28.217 19.5396 28.1348 19.6258" stroke="white" stroke-width="1.04" stroke-miterlimit="10" stroke-linecap="round"/>
<path d="M28.683 19.456C28.6697 19.4514 28.6552 19.4491 28.6396 19.4446" stroke="white" stroke-width="1.04" stroke-miterlimit="10" stroke-linecap="round"/>
<path d="M22.9834 24.641C21.4774 25.5978 19.2901 31.3178 19.2979 32.8245C19.3112 35.1745 23.9692 39.0136 24.0492 38.9449C24.3382 38.7005 25.8464 37.7121 25.8764 37.5615C25.902 37.4306 23.3312 33.2642 23.3757 32.8419C23.728 32.0313 23.808 30.4887 25.1851 28.7889C26.8289 26.7608 25.3163 23.1584 22.9823 24.641H22.9834Z" fill="white"/>
<path d="M26.3192 38.7473C26.2081 38.5301 25.8491 38.1167 25.5456 37.9857C25.39 37.9181 25.2167 37.9432 25.0333 37.7774C24.9088 37.6639 24.3075 38.2901 24.3709 38.3752C24.4264 38.4483 24.4564 38.5018 24.4731 38.5454C24.4842 38.5716 24.5376 39.0495 24.6065 39.2196C24.7921 39.6757 25.0911 40.0815 25.4367 40.4492C25.7879 40.2528 26.3181 39.332 26.3181 38.7483L26.3192 38.7473Z" fill="white"/>
<path d="M24.1006 38.6417L24.4918 39.1818L25.7066 37.9839L25.2887 37.5627L24.7752 37.9239L24.1006 38.6417Z" fill="white"/>
<path d="M26.3218 38.1572C26.3963 38.7289 26.1551 40.2432 25.0459 40.757" stroke="white" stroke-width="0.5" stroke-linecap="round" stroke-linejoin="round"/>
<path d="M32.2969 24.7399C33.8029 25.6967 35.9902 31.4167 35.9824 32.9234C35.9691 35.2733 31.3111 39.1125 31.231 39.0438C30.9421 38.7994 29.4339 37.811 29.4039 37.6604C29.3783 37.5295 31.949 33.363 31.9046 32.9408C31.5522 32.1302 31.4722 30.5876 30.0952 28.8878C28.4514 26.8597 29.964 23.2572 32.298 24.7399H32.2969Z" fill="white"/>
<path d="M28.9611 38.8464C29.0722 38.6293 29.4312 38.2158 29.7346 38.0849C29.8902 38.0172 30.0636 38.0423 30.247 37.8765C30.3715 37.763 30.9728 38.3893 30.9094 38.4743C30.8538 38.5474 30.8238 38.6009 30.8072 38.6445C30.796 38.6707 30.7427 39.1486 30.6738 39.3188C30.4882 39.7748 30.1892 40.1806 29.8435 40.5483C29.4923 40.3519 28.9622 39.4311 28.9622 38.8475L28.9611 38.8464Z" fill="white"/>
<path d="M31.1797 38.7406L30.7885 39.2806L29.5737 38.0827L29.9916 37.6616L30.505 38.0227L31.1797 38.7406Z" fill="white"/>
<path d="M28.9585 38.2559C28.884 38.8275 29.1252 40.3418 30.2344 40.8557" stroke="white" stroke-width="0.5" stroke-linecap="round" stroke-linejoin="round"/>
<path d="M31.7804 30.2531C31.876 32.6849 31.8838 38.633 31.6771 42.3379C31.6771 42.3379 32.564 42.3434 32.8707 42.2812C33.8021 42.0936 32.9496 32.2169 32.9496 32.2169L32.8063 26.4881L32.5095 24.8789C32.5095 24.8789 30.0944 23.0253 29.5098 23.2304C30.3922 23.7279 31.6637 27.2758 31.7804 30.2531Z" fill="white"/>
<path d="M24.7934 29.0181C24.46 29.6977 23.353 32.5758 23.3763 32.842C23.3997 33.1082 25.4336 36.9353 25.637 37.2244" stroke="white" stroke-width="0.5" stroke-linecap="round" stroke-linejoin="round"/>
<path d="M22.8076 37.9607C23.0399 38.1909 23.6812 38.7451 23.9457 38.9469" stroke="white" stroke-width="0.5" stroke-linecap="round" stroke-linejoin="round"/>
<path d="M25.5824 37.5222C25.2879 37.2483 24.0664 38.5051 24.042 38.7801" stroke="white" stroke-width="0.5" stroke-linecap="round" stroke-linejoin="round"/>
<path d="M22.0537 32.842C22.2593 32.6435 22.8673 32.578 22.9773 32.7035C23.0662 32.806 22.2949 32.8115 22.1693 33.1431C22.1426 33.213 22.5294 33.0035 22.9151 33.0766" stroke="white" stroke-width="0.5" stroke-linecap="round" stroke-linejoin="round"/>
<path d="M52.3524 65.9906H50.5609C50.4624 65.9906 50.4095 65.8969 50.4551 65.7248C50.4551 65.7248 50.4551 65.7248 50.4561 65.7248C50.48 65.5955 50.509 65.3399 50.5796 64.9296C50.6449 64.5447 51.9737 65.0843 52.0941 65.2809C52.1926 65.4407 52.2528 65.6148 52.2974 65.6301C52.3845 65.6617 52.4426 65.9906 52.3513 65.9906H52.3524Z" fill="white"/>
<path d="M57.958 65.4172C57.7713 65.4468 57.7474 65.7563 57.7568 65.9905H57.8501C57.8864 65.9905 57.7993 65.5455 57.958 65.4172Z" fill="white"/>
<path d="M60.2233 65.9906H58.6051C58.5107 65.9906 58.436 65.8786 58.3603 65.7503C58.271 65.5761 58.1953 65.3837 57.9993 65.3542C57.6953 65.3073 57.6455 65.68 57.657 65.9906H57.3115C57.2918 65.9906 57.0107 65.4132 57.0107 65.2595C57.0107 65.124 57.075 64.6689 57.1455 64.6414C57.1684 64.6322 57.8686 64.5335 58.6217 65.3297C58.9515 65.679 59.5148 65.4417 59.5687 65.4692C59.6102 65.4906 60.188 65.6016 60.2233 65.6291C60.3478 65.7279 60.3146 65.9895 60.2233 65.9895V65.9906Z" fill="white"/>
<path d="M58.5814 55.1685C58.5492 55.5422 58.5191 55.9271 58.5015 56.2845C58.4227 57.9014 58.1208 61.9154 58.1924 63.5832C58.2069 63.9142 58.238 64.0873 58.2681 64.1718C58.2961 64.2502 58.4248 64.3734 58.5565 64.5363C58.8314 64.8774 59.2287 65.3336 59.5399 65.4874C59.5513 65.4935 59.5523 65.5088 59.5399 65.5149C59.2795 65.6472 58.8791 65.8152 58.7194 65.7032C58.5015 65.5515 57.6748 64.6718 57.2349 64.6891C57.2121 64.6891 57.1945 64.6697 57.1997 64.6483C57.237 64.5099 57.3449 64.1087 57.2972 63.8378C57.0161 62.2605 55.9559 58.5643 55.7733 55.9138C55.7619 55.7417 55.7733 55.477 55.7962 55.1695H58.5803L58.5814 55.1685Z" fill="white"/>
<path d="M50.446 56.2854C50.4802 55.9474 50.5663 55.5625 50.6763 55.1694H53.3567C53.2374 55.6409 53.4709 56.1541 53.337 56.6836C52.613 59.553 51.7146 62.4173 51.6555 63.6514C51.6358 64.0781 51.8443 64.912 52.0497 65.303C52.0684 65.3387 52.0653 65.3875 52.031 65.4089C51.9958 65.4303 51.753 65.245 51.557 65.2501C51.3786 65.2541 50.9118 65.4924 50.7873 65.415C50.7022 65.3631 50.6348 65.1849 50.6472 64.855C50.6607 64.7756 50.7323 64.1565 50.7593 63.7919C50.8132 63.0771 50.2977 57.768 50.446 56.2865V56.2854Z" fill="white"/>
<path d="M58.4585 30.688C59.8434 32.7459 59.7209 36.0959 59.9969 36.9614C60.4025 38.2352 60.1929 43.5617 60.1763 43.972C60.167 44.2103 59.1608 44.2419 58.9979 44.1716C58.5104 43.9619 58.7552 40.1954 58.583 39.0722C58.4326 38.0927 58.4782 35.9615 58.3755 35.4442C58.0861 33.9851 58.4585 30.689 58.4585 30.689V30.688Z" fill="white"/>
<path d="M60.0776 43.9662C59.8536 44.793 59.8214 45.6524 59.643 45.9284C59.4646 46.2053 58.5974 46.9018 58.5206 46.7827C58.3982 46.5922 58.8359 46.3682 58.7447 46.2247C58.7447 46.2247 58.1928 46.5281 58.1306 46.4314C57.9179 46.1035 58.9822 45.4549 58.9252 45.409C58.8681 45.3632 57.8391 45.6809 57.8214 45.5699C57.8048 45.4589 58.6627 45.0466 58.6627 45.0466C58.6627 45.0466 58.8027 44.1393 58.9583 43.8542C59.1139 43.5701 59.3919 43.5843 59.3919 43.5843C59.3919 43.5843 60.1274 43.7778 60.0766 43.9652L60.0776 43.9662Z" fill="white"/>
<path d="M58.6761 57.1675C58.6574 57.5575 55.7923 57.4343 55.7083 56.8447C55.4852 55.2766 55.2415 46.9616 55.2415 46.9616C55.2415 46.9616 53.7394 54.5251 53.3525 57.3324C53.2934 57.7632 50.2872 57.2245 50.3245 56.8518C50.4718 55.3906 50.8919 46.7233 51.7177 42.0618C52.0372 40.2554 54.1346 38.4032 54.144 37.7292C54.144 37.7292 57.0257 37.2048 57.8835 37.7292C58.3472 39.2718 58.5599 40.4693 58.786 42.6921C59.2933 47.6846 58.7393 55.859 58.6761 57.1665V57.1675Z" fill="white"/>
<path d="M58.0365 39.3393C57.8736 39.4696 54.5552 39.0267 54.3695 38.2915C54.0272 36.9352 53.8166 31.1414 53.8166 31.1414L57.7346 30.4377C57.7346 30.4377 59.4213 38.2314 58.0354 39.3403L58.0365 39.3393Z" fill="white"/>
<path d="M56.6389 28.3071C55.8474 28.4079 55.5487 28.803 55.3039 27.9772C55.0269 27.0424 53.4512 26.1464 53.8983 24.6587C54.1981 23.6618 55.0788 23.3523 55.9014 23.3523C56.7665 23.3523 57.6306 23.9419 57.8785 24.6831C58.0185 25.1027 57.8132 25.682 57.7063 26.1311C57.6804 26.24 57.5486 28.191 56.6389 28.3071Z" fill="white"/>
<path d="M54.508 29.5404C54.3306 29.6646 55.8399 31.8579 56.6781 31.5402C57.4924 31.2317 56.8358 29.6575 56.8358 29.6575C56.7808 29.5852 56.6438 29.2573 56.536 29.0516C56.5121 28.9427 56.4934 28.8235 56.4934 28.7024C56.4934 28.0212 56.5816 27.6322 56.5816 27.6322L55.0858 26.3594L54.8991 26.3736C55.0619 27.5354 55.1013 29.1249 54.508 29.5394V29.5404Z" fill="white"/>
<path d="M56.5364 29.0514C56.5125 28.9424 56.4939 28.8233 56.4939 28.7021C56.4939 28.0209 56.582 27.6319 56.582 27.6319L55.1889 26.8367C55.1184 27.7938 55.8331 28.9047 56.5354 29.0514H56.5364Z" fill="white"/>
<path d="M55.294 23.606C55.6094 22.5481 54.8345 21.1602 53.7588 21.5797C52.682 21.9992 53.3511 24.1223 54.6021 24.1284C55.8542 24.1355 55.294 23.605 55.294 23.605V23.606Z" fill="white"/>
<path d="M55.369 23.1864C55.369 23.1864 55.3753 23.1365 55.3877 23.0489C55.3919 23.0051 55.4033 22.9532 55.4043 22.8901C55.4043 22.8269 55.4043 22.7557 55.4043 22.6783C55.3981 22.6009 55.3856 22.5184 55.3753 22.4298C55.3659 22.386 55.3524 22.3423 55.341 22.2975C55.3275 22.2527 55.3192 22.2048 55.2975 22.161C55.2788 22.1162 55.2591 22.0704 55.2404 22.0236C55.2197 21.9777 55.1906 21.935 55.1647 21.8902C55.1512 21.8678 55.1387 21.8454 55.1242 21.824L55.0744 21.7629C55.0392 21.7242 55.0122 21.6773 54.9697 21.6448C54.9302 21.6091 54.8919 21.5725 54.8504 21.5389C54.8058 21.5093 54.7612 21.4808 54.7176 21.4523C54.6242 21.4045 54.5298 21.3586 54.4302 21.3393C54.4053 21.3332 54.3815 21.3271 54.3576 21.322C54.3338 21.3169 54.3089 21.3179 54.285 21.3149C54.2363 21.3128 54.1896 21.3047 54.144 21.3087C54.0527 21.3179 53.9655 21.322 53.8898 21.3485C53.8514 21.3597 53.8141 21.3678 53.7809 21.381C53.7487 21.3963 53.7176 21.4106 53.6886 21.4248C53.6595 21.4381 53.6325 21.4513 53.6076 21.4635C53.5848 21.4788 53.5641 21.493 53.5444 21.5053C53.4686 21.5562 53.4261 21.5857 53.4261 21.5857C53.4137 21.5939 53.4105 21.6101 53.4188 21.6224C53.4271 21.6336 53.4427 21.6366 53.4552 21.6295L53.4583 21.6275C53.4583 21.6275 53.5008 21.602 53.5765 21.5562C53.5952 21.545 53.616 21.5328 53.6388 21.5195C53.6637 21.5093 53.6896 21.4992 53.7176 21.488C53.7456 21.4768 53.7757 21.4645 53.8068 21.4513C53.839 21.4411 53.8742 21.436 53.9106 21.4258C53.9821 21.4024 54.062 21.4014 54.1471 21.3963C54.1896 21.3943 54.2321 21.4034 54.2767 21.4065C54.2985 21.4095 54.3213 21.4095 54.3431 21.4146C54.3649 21.4207 54.3867 21.4269 54.4085 21.433C54.4987 21.4523 54.5838 21.4951 54.6688 21.5389C54.7083 21.5653 54.7487 21.5928 54.7892 21.6193C54.8255 21.6509 54.8607 21.6855 54.897 21.7181C54.9354 21.7486 54.9603 21.7924 54.9925 21.828L55.0381 21.8851L55.0755 21.9472C55.0993 21.9889 55.1273 22.0276 55.147 22.0704C55.1657 22.1142 55.1844 22.1569 55.2031 22.1987C55.2394 22.2832 55.256 22.3718 55.2809 22.4522C55.2943 22.5357 55.3099 22.6141 55.3192 22.6874C55.3234 22.7608 55.3265 22.828 55.3296 22.888C55.3327 22.9481 55.3255 23.0021 55.3244 23.0459C55.3203 23.1345 55.3182 23.1844 55.3182 23.1844C55.3182 23.1986 55.3286 23.2108 55.3441 23.2118C55.3587 23.2118 55.3701 23.2027 55.3721 23.1884L55.369 23.1864Z" fill="white"/>
<path d="M55.0355 23.8451C55.0355 23.8451 54.9836 23.8441 54.8944 23.8421C54.8716 23.8421 54.8467 23.8421 54.8197 23.8411C54.7927 23.8411 54.7616 23.8472 54.7294 23.8512C54.6651 23.8594 54.5904 23.8665 54.5158 23.894C54.4774 23.9062 54.438 23.9174 54.3975 23.9317C54.3591 23.951 54.3187 23.9714 54.2782 23.9918C54.2357 24.0101 54.1994 24.0406 54.161 24.0702C54.1236 24.1007 54.0811 24.1272 54.05 24.1659C54.0168 24.2025 53.9795 24.2382 53.9483 24.2789C53.9203 24.3217 53.8913 24.3644 53.8622 24.4082C53.8145 24.4999 53.7689 24.5956 53.744 24.6974C53.7284 24.7473 53.7139 24.7972 53.7077 24.8491C53.7004 24.9 53.689 24.951 53.6849 25.0019C53.6797 25.1037 53.6724 25.2035 53.6838 25.3002C53.6869 25.3969 53.7066 25.4886 53.7212 25.5762C53.7357 25.6637 53.7637 25.7421 53.7824 25.8175C53.8041 25.8908 53.8342 25.956 53.855 26.014C53.8757 26.0731 53.9027 26.1209 53.9224 26.1606C53.9618 26.2411 53.9846 26.2869 53.9846 26.2869C53.9909 26.3001 54.0075 26.3052 54.021 26.2991C54.0334 26.293 54.0396 26.2777 54.0344 26.2655V26.2635C54.0344 26.2635 54.0137 26.2177 53.9795 26.1372C53.9629 26.0965 53.939 26.0496 53.9224 25.9906C53.9048 25.9325 53.8799 25.8684 53.8612 25.7961C53.8456 25.7228 53.8207 25.6464 53.8093 25.5619C53.7979 25.4774 53.7813 25.3888 53.7824 25.2972C53.7741 25.2045 53.7824 25.1098 53.7876 25.0131C53.7907 24.9652 53.8031 24.9174 53.8104 24.8695C53.8166 24.8206 53.8301 24.7738 53.8457 24.728C53.8695 24.6333 53.9151 24.5467 53.9566 24.4612C53.9826 24.4215 54.0085 24.3818 54.0334 24.342C54.0614 24.3044 54.0946 24.2728 54.1247 24.2382C54.1527 24.2015 54.1911 24.1781 54.2243 24.1496C54.2585 24.1221 54.2917 24.0946 54.329 24.0763C54.3653 24.0559 54.4017 24.0355 54.4359 24.0162C54.4722 24.0009 54.5095 23.9897 54.5438 23.9765C54.6122 23.947 54.6797 23.9398 54.7388 23.9266C54.7689 23.9215 54.7958 23.9134 54.8218 23.9113C54.8487 23.9103 54.8736 23.9083 54.8965 23.9073C54.9867 23.9022 55.0375 23.8991 55.0375 23.8991C55.0521 23.8991 55.0635 23.8859 55.0624 23.8716C55.0624 23.8574 55.05 23.8472 55.0365 23.8472L55.0355 23.8451Z" fill="white"/>
<path d="M57.8735 26.8257C57.8247 27.6759 57.3869 28.2289 57.0488 28.3225C56.1131 28.5802 55.2231 27.7187 54.9243 26.4907C54.9119 26.3064 54.9316 26.116 54.9721 25.9266C55.0706 25.9958 55.3559 26.0834 55.5405 25.7993C55.7532 25.4735 55.7532 24.7139 56.0592 24.5886C56.6121 25.4022 57.4046 24.5194 57.7459 25.1782C57.8257 25.4266 57.7874 25.835 57.8455 26.2239C57.8776 26.4378 57.8849 26.6394 57.8745 26.8257H57.8735Z" fill="white"/>
<path d="M56.7549 26.6994C56.7549 26.509 56.5536 26.3552 56.3047 26.3552C56.0557 26.3552 55.8545 26.509 55.8545 26.6994C55.8545 26.8898 56.0557 27.0436 56.3047 27.0436C56.5536 27.0436 56.7549 26.8898 56.7549 26.6994Z" fill="white"/>
<path d="M57.8735 26.8257C57.7273 26.7697 57.6256 26.6526 57.6256 26.5192C57.6256 26.3939 57.7138 26.285 57.8445 26.2239C57.8766 26.4377 57.8839 26.6393 57.8735 26.8257Z" fill="white"/>
<path d="M56.0585 24.5886C56.6114 25.4022 57.4039 24.5194 57.7441 25.1782C57.38 24.7933 56.5709 25.5977 56.0554 24.5907C56.0564 24.5907 56.0574 24.5896 56.0585 24.5886Z" fill="white"/>
<path d="M55.5398 25.7992C55.6705 25.5996 55.7203 25.2361 55.8105 24.9561C55.7576 25.3746 55.7691 25.8256 55.5004 26.012C55.2411 26.1912 55.0927 26.0211 54.9921 25.9407C55.1062 26.0069 55.3666 26.0659 55.5398 25.8002V25.7992Z" fill="white"/>
<path d="M54.5015 25.8543C54.2671 26.112 54.8656 27.1139 55.0388 26.4724C55.1114 26.2016 55.0834 26.0458 54.9548 25.9134C54.7868 25.7403 54.5814 25.7668 54.5015 25.8554V25.8543Z" fill="white"/>
<path d="M54.6017 26.0032C54.6837 25.9737 54.8299 26.0114 54.8424 26.1885C54.8455 26.2354 54.8029 26.2476 54.8154 26.2944C54.8237 26.324 54.8756 26.3535 54.8994 26.3565" fill="white"/>
<path d="M54.6017 26.0032C54.6837 25.9737 54.8299 26.0114 54.8424 26.1885C54.8455 26.2354 54.8029 26.2476 54.8154 26.2944C54.8237 26.324 54.8756 26.3535 54.8994 26.3565" stroke="white" stroke-width="0.69" stroke-linecap="round" stroke-linejoin="round"/>
<path d="M54.6682 26.148C54.6942 26.0734 54.8 26.0653 54.8301 26.1248L54.6682 26.148Z" fill="white"/>
<path d="M54.6682 26.148C54.6942 26.0734 54.8 26.0653 54.8301 26.1248" stroke="white" stroke-width="0.69" stroke-linecap="round" stroke-linejoin="round"/>
<path d="M50.6348 44.7929C50.4947 44.6371 50.8609 43.2818 50.9408 42.9071C51.2509 41.4581 51.8951 40.3166 51.9252 40.1222C51.9252 40.1191 49.6856 38.5093 49.4647 37.4981C49.2613 36.5644 51.1244 31.967 52.0341 30.8979C52.4169 30.4478 53.8131 29.7014 53.9947 29.5711C54.2478 29.3888 54.8526 28.8135 54.9065 28.9754C54.9065 28.9754 56.5081 32.9547 56.5818 34.6491C56.5994 35.0533 55.7156 45.1034 55.5538 45.3356C55.2996 45.7011 50.8205 44.9996 50.6348 44.7929ZM52.8723 36.6601C52.7955 35.9178 52.5507 35.1562 52.5507 35.1562C52.4646 35.1877 51.781 37.157 51.781 37.157L52.7125 37.8718C52.7125 37.8718 52.949 37.4014 52.8723 36.6591V36.6601Z" fill="white"/>
<path d="M59.552 44.7929C59.4763 45.2582 57.7564 45.4008 57.7045 45.3091C57.44 44.8356 57.6921 40.9459 57.6817 39.4725C57.6703 37.7924 57.8487 36.1928 57.8861 34.4689C57.9255 32.636 56.6288 29.6444 56.5355 29.0518C56.6236 28.9652 56.8031 29.3512 57.0012 29.5232C57.2014 29.6974 58.1848 30.3012 58.4587 30.6881C59.5095 32.1737 58.607 36.2834 58.7834 37.4971C58.9981 38.9777 59.5894 44.5668 59.552 44.7918V44.7929Z" fill="white"/>
<path d="M58.9492 45.1838C58.7054 45.2428 57.9689 45.3732 57.7044 45.309C57.4399 45.2449 57.6339 41.4458 57.6339 41.4458" fill="white"/>
<path d="M58.9492 45.1838C58.7054 45.2428 57.9689 45.3732 57.7044 45.309C57.4399 45.2449 57.6339 41.4458 57.6339 41.4458" stroke="white" stroke-width="0.5" stroke-linecap="round" stroke-linejoin="round"/>
<path d="M55.7881 43.6951C55.7487 43.9598 55.6636 45.1247 55.5536 45.3355C55.4437 45.5462 52.617 45.2815 51.3888 45.0045" fill="white"/>
<path d="M55.7881 43.6951C55.7487 43.9598 55.6636 45.1247 55.5536 45.3355C55.4437 45.5462 52.617 45.2815 51.3888 45.0045" stroke="white" stroke-width="0.5" stroke-linecap="round" stroke-linejoin="round"/>
<path d="M58.4224 31.7034C58.3467 31.8775 58.3342 32.2329 58.412 32.574C58.4711 32.8326 58.9276 33.4344 58.9628 33.8468C59.0095 34.3783 58.8529 34.7958 58.6869 35.1338C58.5282 35.4587 59.3757 42.0803 59.4805 44.0679" fill="white"/>
<path d="M58.4224 31.7034C58.3467 31.8775 58.3342 32.2329 58.412 32.574C58.4711 32.8326 58.9276 33.4344 58.9628 33.8468C59.0095 34.3783 58.8529 34.7958 58.6869 35.1338C58.5282 35.4587 59.3757 42.0803 59.4805 44.0679" stroke="white" stroke-width="0.5" stroke-linecap="round" stroke-linejoin="round"/>
<path d="M53.9709 29.6729C54.2012 30.4956 54.2863 31.5149 54.3662 31.579C54.4232 31.6238 54.8848 31.3143 54.9346 31.3642C54.9854 31.4161 54.5954 32.246 54.6276 32.3295C54.6577 32.4079 56.4294 34.2896 56.5176 34.9657" fill="white"/>
<path d="M53.9709 29.6729C54.2012 30.4956 54.2863 31.5149 54.3662 31.579C54.4232 31.6238 54.8848 31.3143 54.9346 31.3642C54.9854 31.4161 54.5954 32.246 54.6276 32.3295C54.6577 32.4079 56.4294 34.2896 56.5176 34.9657" stroke="white" stroke-width="0.5" stroke-linecap="round" stroke-linejoin="round"/>
<path d="M57.3975 29.9031C57.5656 30.2289 57.8622 31.1647 57.8498 31.2166C57.8373 31.2696 57.4598 31.1413 57.4598 31.1413C57.4598 31.1413 57.8571 31.7879 57.9027 31.8601C58.0012 32.017 58.0998 34.1553 57.8819 34.6797" fill="white"/>
<path d="M57.3975 29.9031C57.5656 30.2289 57.8622 31.1647 57.8498 31.2166C57.8373 31.2696 57.4598 31.1413 57.4598 31.1413C57.4598 31.1413 57.8571 31.7879 57.9027 31.8601C58.0012 32.017 58.0998 34.1553 57.8819 34.6797" stroke="white" stroke-width="0.5" stroke-linecap="round" stroke-linejoin="round"/>
<path d="M52.5502 35.1562C52.8085 34.5046 53.3946 33.6105 53.4932 33.2603L52.5502 35.1562Z" fill="white"/>
<path d="M52.5502 35.1562C52.8085 34.5046 53.3946 33.6105 53.4932 33.2603" stroke="white" stroke-width="0.5" stroke-linecap="round" stroke-linejoin="round"/>
<path d="M54.9981 44.5489L51.499 41.7893L55.3681 37.0623L58.8671 39.8219L54.9981 44.5489Z" fill="white"/>
<path d="M55.7898 38.2351L57.5117 39.5934" stroke="white" stroke-width="1.38" stroke-linecap="round" stroke-linejoin="round"/>
<path d="M53.1241 38.1426C53.7081 38.6609 55.7683 40.1333 55.8678 40.4072C55.9228 40.5579 54.9664 41.6179 54.7382 41.7014C54.5411 41.7736 51.62 40.0681 51.5702 39.6852C51.5204 39.3024 53.1231 38.1426 53.1231 38.1426H53.1241Z" fill="white"/>
<path d="M53.9199 38.7625C53.4936 38.3858 53.145 38.1435 52.8038 37.8716L53.9199 38.7625Z" fill="white"/>
<path d="M53.9199 38.7625C53.4936 38.3858 53.145 38.1435 52.8038 37.8716" stroke="white" stroke-width="0.5" stroke-linecap="round" stroke-linejoin="round"/>
<path d="M56.7249 42.6922C56.5703 42.7207 56.5237 42.1057 56.477 42.0354C56.4438 41.9876 55.4386 41.5548 55.2643 41.3634C55.0009 41.0762 55.5994 40.4093 55.7218 40.5152C55.8536 40.6282 57.2654 41.8206 57.3224 41.9316C57.3753 42.0334 57.3463 42.4875 57.3276 42.4886C57.2311 42.4957 57.2 42.0955 57.1481 42.0802C57.1295 42.0813 56.9656 42.6474 56.7249 42.6912V42.6922Z" fill="white"/>
<path d="M56.8442 42.6139C56.8442 42.6139 56.867 42.5609 56.8961 42.4805C56.9231 42.399 56.9604 42.2901 56.9822 42.175C56.9936 42.118 57.0029 42.06 57.0029 41.9999C57.0029 41.9846 57.0019 41.9693 56.9977 41.952V41.9459L56.9957 41.9408V41.9388L56.9915 41.9296C56.9894 41.9235 56.9853 41.9123 56.9811 41.9052C56.9666 41.8767 56.9459 41.8563 56.9282 41.839C56.8919 41.8064 56.8608 41.7891 56.839 41.7748C56.8183 41.7616 56.8058 41.7545 56.8058 41.7545C56.7934 41.7463 56.7758 41.7504 56.7685 41.7626C56.7623 41.7718 56.7633 41.783 56.7685 41.7922C56.7685 41.7922 56.7768 41.8054 56.7944 41.8247C56.811 41.8441 56.837 41.8706 56.8608 41.8991C56.8722 41.9133 56.8816 41.9306 56.8878 41.9459L56.8909 41.9561L56.893 41.9653V41.9673V41.9703C56.895 41.9785 56.894 41.9897 56.895 42.0009C56.895 42.0477 56.8847 42.1027 56.8753 42.1567C56.8536 42.2667 56.8318 42.3776 56.8152 42.4601C56.7996 42.5436 56.7903 42.6006 56.7903 42.6006C56.7882 42.6149 56.7975 42.6292 56.8131 42.6312C56.8256 42.6332 56.838 42.6261 56.8421 42.6149L56.8442 42.6139Z" fill="white"/>
<path d="M56.732 42.6302C56.732 42.6302 56.7465 42.5803 56.7611 42.5019C56.7735 42.4245 56.7891 42.3206 56.7922 42.2147C56.7932 42.1618 56.7943 42.1088 56.788 42.0569C56.7849 42.0304 56.7818 42.006 56.7694 41.9744C56.76 41.954 56.7538 41.9479 56.7465 41.9378C56.7393 41.9276 56.732 41.9204 56.7237 41.9123C56.6636 41.8502 56.6044 41.8319 56.6044 41.8319C56.5899 41.8278 56.5743 41.8359 56.5702 41.8502C56.5671 41.8604 56.5702 41.8695 56.5764 41.8767C56.5764 41.8767 56.6096 41.9113 56.649 41.9714C56.6532 41.9785 56.6584 41.9866 56.6636 41.9948C56.6677 42.0019 56.675 42.0141 56.6739 42.0141C56.677 42.0243 56.6812 42.0467 56.6833 42.0681C56.6864 42.1129 56.6874 42.1628 56.6874 42.2137C56.6874 42.3145 56.6853 42.4174 56.6822 42.4947C56.6812 42.5721 56.6802 42.6241 56.6802 42.6241C56.6802 42.6383 56.6916 42.6505 56.7071 42.6515C56.7196 42.6515 56.7299 42.6434 56.7341 42.6322L56.732 42.6302Z" fill="white"/>
<path d="M57.1757 42.0772C57.1757 42.0772 57.183 42.0578 57.184 42.0273C57.1861 41.9978 57.183 41.955 57.1633 41.9132C57.1581 41.9031 57.1539 41.8939 57.1467 41.8837C57.1405 41.8746 57.1332 41.8654 57.1259 41.8572C57.1114 41.842 57.0948 41.8298 57.0803 41.8216C57.0512 41.8053 57.0284 41.8023 57.0284 41.8023C57.0129 41.8002 56.9973 41.8104 56.9952 41.8267C56.9942 41.8338 56.9952 41.841 57.0004 41.8471C57.0004 41.8471 57.0118 41.8634 57.0253 41.8837C57.0398 41.9041 57.0533 41.9306 57.0658 41.957C57.0782 41.9876 57.0917 42.0181 57.101 42.0415C57.1114 42.067 57.1228 42.0843 57.1228 42.0843C57.1311 42.0976 57.1498 42.1016 57.1633 42.0935C57.1695 42.0894 57.1736 42.0843 57.1757 42.0782V42.0772Z" fill="white"/>
<path d="M55.7031 40.4663C55.3598 40.6333 54.895 41.1608 54.7301 41.5232L55.7031 40.4663Z" fill="white"/>
<path d="M55.7031 40.4663C55.3598 40.6333 54.895 41.1608 54.7301 41.5232" stroke="white" stroke-width="1.38" stroke-linecap="round" stroke-linejoin="round"/>
<path d="M51.99 40.1946C52.0864 40.2628 52.2742 40.3758 52.5117 40.5041L51.99 40.1946Z" fill="white"/>
<path d="M51.99 40.1946C52.0864 40.2628 52.2742 40.3758 52.5117 40.5041" stroke="white" stroke-width="0.5" stroke-linecap="round" stroke-linejoin="round"/>
</svg>
